<svg width="69" height="61" viewBox="0 0 69 61" fill="none" xmlns="http://www.w3.org/2000/svg">
<path d="M55.9035 50.3343C54.7059 49.0079 53.6902 47.5278 52.883 45.9333C51.6079 43.434 49.8453 41.2153 47.6995 39.4078C45.5535 37.6003 43.0675 36.2405 40.3879 35.4086C38.0448 34.6842 35.5928 34.3767 33.1433 34.5001C34.9262 34.3983 36.6816 34.9738 38.0579 36.1117C39.4342 37.2495 40.3297 38.8654 40.5649 40.6356C41.2095 44.4604 42.9046 48.0308 45.4612 50.9477C48.0177 53.8648 51.335 56.0135 55.0422 57.1541C59.2814 58.4569 63.824 58.3867 68.021 56.9535C63.3461 56.1911 59.0713 53.856 55.9035 50.3343Z" fill="#5B06AF"/>
<path d="M25.6509 34.7361C26.1957 37.1294 27.154 39.4093 28.4826 41.4733C27.5124 39.9746 27.139 38.1668 27.4361 36.4064C27.7331 34.6458 28.6791 33.0606 30.0873 31.9633C33.0782 29.4893 35.3237 26.2337 36.5737 22.5589C37.8235 18.8841 38.0288 14.9345 37.1667 11.15C36.1825 6.82062 33.8481 2.91611 30.5003 0C32.167 4.4554 32.2628 9.34642 30.7716 13.8638C30.2008 15.5692 29.4073 17.1918 28.4119 18.6895C26.8834 21.0424 25.8422 23.6779 25.3497 26.4401C24.8572 29.2024 24.9235 32.0353 25.5447 34.7715L25.6509 34.7361Z" fill="#5B06AF"/>
<path d="M36.9189 41.957C36.1162 43.553 34.7399 44.7865 33.0658 45.4101C31.3919 46.0338 29.544 46.0015 27.8927 45.3197C24.2538 43.956 20.3073 43.6311 16.4943 44.3811C12.6813 45.1312 9.15197 46.9269 6.30075 49.5674C3.04979 52.5917 0.843389 56.5704 0 60.9298C3.02513 57.2577 7.21222 54.727 11.8697 53.756C13.6195 53.3979 15.4071 53.2591 17.1911 53.343C19.9894 53.488 22.7884 53.071 25.4228 52.1165C28.0572 51.162 30.4737 49.6895 32.5297 47.7857C34.329 46.1148 35.8224 44.1422 36.9425 41.957H36.9189Z" fill="#5B06AF"/>
</svg>
