<svg width="275" height="61" viewBox="0 0 275 61" fill="none" xmlns="http://www.w3.org/2000/svg">
<path d="M55.9035 50.3343C54.7059 49.0079 53.6902 47.5278 52.883 45.9333C51.6079 43.434 49.8453 41.2153 47.6995 39.4078C45.5535 37.6003 43.0675 36.2405 40.3879 35.4086C38.0448 34.6842 35.5928 34.3767 33.1433 34.5001C34.9262 34.3983 36.6816 34.9738 38.0579 36.1117C39.4342 37.2495 40.3297 38.8654 40.5649 40.6356C41.2095 44.4604 42.9046 48.0308 45.4612 50.9477C48.0177 53.8648 51.335 56.0135 55.0422 57.1541C59.2814 58.4569 63.824 58.3867 68.021 56.9535C63.3461 56.1911 59.0713 53.856 55.9035 50.3343Z" fill="#5B06AF"/>
<path d="M25.6509 34.7361C26.1957 37.1294 27.154 39.4093 28.4826 41.4733C27.5124 39.9746 27.139 38.1668 27.4361 36.4064C27.7331 34.6458 28.6791 33.0606 30.0873 31.9633C33.0782 29.4893 35.3237 26.2337 36.5737 22.5589C37.8235 18.8841 38.0288 14.9345 37.1667 11.15C36.1825 6.82062 33.8481 2.91611 30.5003 0C32.167 4.4554 32.2628 9.34642 30.7716 13.8638C30.2008 15.5692 29.4073 17.1918 28.4119 18.6895C26.8834 21.0424 25.8422 23.6779 25.3497 26.4401C24.8572 29.2024 24.9235 32.0353 25.5447 34.7715L25.6509 34.7361Z" fill="#5B06AF"/>
<path d="M36.9189 41.957C36.1162 43.553 34.7399 44.7865 33.0658 45.4101C31.3919 46.0338 29.544 46.0015 27.8927 45.3197C24.2538 43.956 20.3073 43.6311 16.4943 44.3811C12.6813 45.1312 9.15197 46.9269 6.30075 49.5674C3.04979 52.5917 0.843389 56.5704 0 60.9298C3.02513 57.2577 7.21222 54.727 11.8697 53.756C13.6195 53.3979 15.4071 53.2591 17.1911 53.343C19.9894 53.488 22.7884 53.071 25.4228 52.1165C28.0572 51.162 30.4737 49.6895 32.5297 47.7857C34.329 46.1148 35.8224 44.1422 36.9425 41.957H36.9189Z" fill="#5B06AF"/>
<path d="M83.7884 33.04C83.7884 35.7067 84.8657 37.04 87.0204 37.04C87.511 37.04 87.9697 36.976 88.3964 36.848C88.823 36.72 89.1857 36.5707 89.4844 36.4V28.784C89.2497 28.7413 88.9724 28.7093 88.6524 28.688C88.3324 28.6453 87.959 28.624 87.5324 28.624C86.2737 28.624 85.335 29.04 84.7164 29.872C84.0977 30.704 83.7884 31.76 83.7884 33.04ZM94.2524 39.888C94.2524 42.64 93.5484 44.6773 92.1404 46C90.7537 47.344 88.599 48.016 85.6764 48.016C84.6524 48.016 83.6284 47.92 82.6044 47.728C81.5804 47.5573 80.631 47.3227 79.7564 47.024L80.5884 43.024C81.335 43.3227 82.1137 43.5573 82.9244 43.728C83.7564 43.8987 84.695 43.984 85.7404 43.984C87.1057 43.984 88.0657 43.6853 88.6204 43.088C89.1964 42.4907 89.4844 41.7227 89.4844 40.784V40.176C88.9724 40.4107 88.439 40.592 87.8844 40.72C87.351 40.8267 86.7644 40.88 86.1244 40.88C83.799 40.88 82.0177 40.1973 80.7804 38.832C79.543 37.4453 78.9244 35.5147 78.9244 33.04C78.9244 31.8027 79.1164 30.6827 79.5004 29.68C79.8844 28.656 80.439 27.7813 81.1644 27.056C81.911 26.3307 82.8177 25.776 83.8844 25.392C84.951 24.9867 86.1564 24.784 87.5004 24.784C88.0764 24.784 88.663 24.816 89.2604 24.88C89.879 24.9227 90.487 24.9867 91.0844 25.072C91.6817 25.1573 92.247 25.264 92.7804 25.392C93.335 25.4987 93.8257 25.616 94.2524 25.744V39.888ZM97.9244 33.712C97.9244 32.2187 98.1484 30.9173 98.5964 29.808C99.0657 28.6773 99.6737 27.7387 100.42 26.992C101.167 26.2453 102.02 25.68 102.98 25.296C103.962 24.912 104.964 24.72 105.988 24.72C108.378 24.72 110.266 25.456 111.652 26.928C113.039 28.3787 113.732 30.5227 113.732 33.36C113.732 33.6373 113.722 33.9467 113.7 34.288C113.679 34.608 113.658 34.896 113.636 35.152H102.82C102.927 36.1333 103.386 36.912 104.196 37.488C105.007 38.064 106.095 38.352 107.46 38.352C108.335 38.352 109.188 38.2773 110.02 38.128C110.874 37.9573 111.567 37.7547 112.1 37.52L112.74 41.392C112.484 41.52 112.143 41.648 111.716 41.776C111.29 41.904 110.81 42.0107 110.276 42.096C109.764 42.2027 109.21 42.288 108.612 42.352C108.015 42.416 107.418 42.448 106.82 42.448C105.306 42.448 103.983 42.224 102.852 41.776C101.743 41.328 100.815 40.72 100.068 39.952C99.343 39.1627 98.799 38.2347 98.4364 37.168C98.095 36.1013 97.9244 34.9493 97.9244 33.712ZM109.124 31.888C109.103 31.4827 109.028 31.088 108.9 30.704C108.794 30.32 108.612 29.9787 108.356 29.68C108.122 29.3813 107.812 29.136 107.428 28.944C107.066 28.752 106.607 28.656 106.052 28.656C105.519 28.656 105.06 28.752 104.676 28.944C104.292 29.1147 103.972 29.3493 103.716 29.648C103.46 29.9467 103.258 30.2987 103.108 30.704C102.98 31.088 102.884 31.4827 102.82 31.888H109.124ZM117.412 25.744C118.223 25.5093 119.268 25.296 120.548 25.104C121.828 24.8907 123.172 24.784 124.58 24.784C126.009 24.784 127.193 24.976 128.132 25.36C129.092 25.7227 129.849 26.2453 130.404 26.928C130.959 27.6107 131.353 28.4213 131.588 29.36C131.823 30.2987 131.94 31.344 131.94 32.496V42H127.172V33.072C127.172 31.536 126.969 30.448 126.564 29.808C126.159 29.168 125.401 28.848 124.292 28.848C123.951 28.848 123.588 28.8693 123.204 28.912C122.82 28.9333 122.479 28.9653 122.18 29.008V42H117.412V25.744ZM135.456 33.712C135.456 32.2187 135.68 30.9173 136.128 29.808C136.597 28.6773 137.205 27.7387 137.952 26.992C138.698 26.2453 139.552 25.68 140.512 25.296C141.493 24.912 142.496 24.72 143.52 24.72C145.909 24.72 147.797 25.456 149.184 26.928C150.57 28.3787 151.264 30.5227 151.264 33.36C151.264 33.6373 151.253 33.9467 151.232 34.288C151.21 34.608 151.189 34.896 151.168 35.152H140.352C140.458 36.1333 140.917 36.912 141.728 37.488C142.538 38.064 143.626 38.352 144.992 38.352C145.866 38.352 146.72 38.2773 147.552 38.128C148.405 37.9573 149.098 37.7547 149.632 37.52L150.272 41.392C150.016 41.52 149.674 41.648 149.248 41.776C148.821 41.904 148.341 42.0107 147.808 42.096C147.296 42.2027 146.741 42.288 146.144 42.352C145.546 42.416 144.949 42.448 144.352 42.448C142.837 42.448 141.514 42.224 140.384 41.776C139.274 41.328 138.346 40.72 137.6 39.952C136.874 39.1627 136.33 38.2347 135.968 37.168C135.626 36.1013 135.456 34.9493 135.456 33.712ZM146.656 31.888C146.634 31.4827 146.56 31.088 146.432 30.704C146.325 30.32 146.144 29.9787 145.888 29.68C145.653 29.3813 145.344 29.136 144.96 28.944C144.597 28.752 144.138 28.656 143.584 28.656C143.05 28.656 142.592 28.752 142.208 28.944C141.824 29.1147 141.504 29.3493 141.248 29.648C140.992 29.9467 140.789 30.2987 140.64 30.704C140.512 31.088 140.416 31.4827 140.352 31.888H146.656ZM165.087 29.392C164.66 29.2853 164.159 29.1787 163.583 29.072C163.007 28.944 162.388 28.88 161.727 28.88C161.428 28.88 161.066 28.912 160.639 28.976C160.234 29.0187 159.924 29.072 159.711 29.136V42H154.943V26.064C155.796 25.7653 156.799 25.488 157.951 25.232C159.124 24.9547 160.426 24.816 161.855 24.816C162.111 24.816 162.42 24.8373 162.783 24.88C163.146 24.9013 163.508 24.944 163.871 25.008C164.234 25.0507 164.596 25.1147 164.959 25.2C165.322 25.264 165.631 25.3493 165.887 25.456L165.087 29.392ZM174.563 38.672C175.032 38.672 175.48 38.6613 175.907 38.64C176.333 38.6187 176.675 38.5867 176.931 38.544V34.928C176.739 34.8853 176.451 34.8427 176.067 34.8C175.683 34.7573 175.331 34.736 175.011 34.736C174.563 34.736 174.136 34.768 173.731 34.832C173.347 34.8747 173.005 34.9707 172.707 35.12C172.408 35.2693 172.173 35.472 172.003 35.728C171.832 35.984 171.747 36.304 171.747 36.688C171.747 37.4347 171.992 37.9573 172.483 38.256C172.995 38.5333 173.688 38.672 174.563 38.672ZM174.179 24.72C175.587 24.72 176.76 24.88 177.699 25.2C178.637 25.52 179.384 25.9787 179.939 26.576C180.515 27.1733 180.92 27.8987 181.155 28.752C181.389 29.6053 181.507 30.5547 181.507 31.6V41.52C180.824 41.6693 179.875 41.84 178.659 42.032C177.443 42.2453 175.971 42.352 174.243 42.352C173.155 42.352 172.163 42.256 171.267 42.064C170.392 41.872 169.635 41.5627 168.995 41.136C168.355 40.688 167.864 40.112 167.523 39.408C167.181 38.704 167.011 37.84 167.011 36.816C167.011 35.8347 167.203 35.0027 167.587 34.32C167.992 33.6373 168.525 33.0933 169.187 32.688C169.848 32.2827 170.605 31.9947 171.459 31.824C172.312 31.632 173.197 31.536 174.115 31.536C174.733 31.536 175.277 31.568 175.747 31.632C176.237 31.6747 176.632 31.7387 176.931 31.824V31.376C176.931 30.5653 176.685 29.9147 176.195 29.424C175.704 28.9333 174.851 28.688 173.635 28.688C172.824 28.688 172.024 28.752 171.235 28.88C170.445 28.9867 169.763 29.1467 169.187 29.36L168.579 25.52C168.856 25.4347 169.197 25.3493 169.603 25.264C170.029 25.1573 170.488 25.072 170.979 25.008C171.469 24.9227 171.981 24.8587 172.515 24.816C173.069 24.752 173.624 24.72 174.179 24.72ZM192.538 42.32C191.151 42.2987 190.021 42.1493 189.146 41.872C188.293 41.5947 187.61 41.2107 187.098 40.72C186.607 40.208 186.266 39.6 186.074 38.896C185.903 38.1707 185.818 37.36 185.818 36.464V17.936L190.586 17.168V35.504C190.586 35.9307 190.618 36.3147 190.682 36.656C190.746 36.9973 190.863 37.2853 191.034 37.52C191.226 37.7547 191.493 37.9467 191.834 38.096C192.175 38.2453 192.634 38.3413 193.21 38.384L192.538 42.32ZM208.463 38.576C209.337 38.576 209.956 38.4907 210.319 38.32C210.681 38.1493 210.863 37.8187 210.863 37.328C210.863 36.944 210.628 36.6133 210.159 36.336C209.689 36.0373 208.975 35.7067 208.015 35.344C207.268 35.0667 206.585 34.7787 205.967 34.48C205.369 34.1813 204.857 33.8293 204.431 33.424C204.004 32.9973 203.673 32.496 203.439 31.92C203.204 31.344 203.087 30.6507 203.087 29.84C203.087 28.2613 203.673 27.0133 204.847 26.096C206.02 25.1787 207.631 24.72 209.679 24.72C210.703 24.72 211.684 24.816 212.623 25.008C213.561 25.1787 214.308 25.3707 214.863 25.584L214.031 29.296C213.476 29.104 212.868 28.9333 212.207 28.784C211.567 28.6347 210.841 28.56 210.031 28.56C208.537 28.56 207.791 28.976 207.791 29.808C207.791 30 207.823 30.1707 207.887 30.32C207.951 30.4693 208.079 30.6187 208.271 30.768C208.463 30.896 208.719 31.0453 209.039 31.216C209.38 31.3653 209.807 31.536 210.319 31.728C211.364 32.112 212.228 32.496 212.911 32.88C213.593 33.2427 214.127 33.648 214.511 34.096C214.916 34.5227 215.193 35.0027 215.343 35.536C215.513 36.0693 215.599 36.688 215.599 37.392C215.599 39.056 214.969 40.3147 213.711 41.168C212.473 42.0213 210.713 42.448 208.431 42.448C206.937 42.448 205.689 42.32 204.687 42.064C203.705 41.808 203.023 41.5947 202.639 41.424L203.439 37.552C204.249 37.872 205.081 38.128 205.935 38.32C206.788 38.4907 207.631 38.576 208.463 38.576ZM219.162 42V17.936L223.93 17.168V25.232C224.25 25.1253 224.655 25.0293 225.146 24.944C225.658 24.8373 226.149 24.784 226.618 24.784C227.983 24.784 229.114 24.976 230.01 25.36C230.927 25.7227 231.653 26.2453 232.186 26.928C232.741 27.6107 233.125 28.4213 233.338 29.36C233.573 30.2987 233.69 31.344 233.69 32.496V42H228.922V33.072C228.922 31.536 228.719 30.448 228.314 29.808C227.93 29.168 227.205 28.848 226.138 28.848C225.711 28.848 225.306 28.8907 224.922 28.976C224.559 29.04 224.229 29.1147 223.93 29.2V42H219.162ZM253.75 33.552C253.75 34.8747 253.558 36.0907 253.174 37.2C252.79 38.288 252.235 39.2267 251.51 40.016C250.784 40.784 249.91 41.3813 248.886 41.808C247.883 42.2347 246.752 42.448 245.494 42.448C244.256 42.448 243.126 42.2347 242.102 41.808C241.099 41.3813 240.235 40.784 239.51 40.016C238.784 39.2267 238.219 38.288 237.814 37.2C237.408 36.0907 237.206 34.8747 237.206 33.552C237.206 32.2293 237.408 31.024 237.814 29.936C238.24 28.848 238.816 27.92 239.542 27.152C240.288 26.384 241.163 25.7867 242.166 25.36C243.19 24.9333 244.299 24.72 245.494 24.72C246.71 24.72 247.819 24.9333 248.822 25.36C249.846 25.7867 250.72 26.384 251.446 27.152C252.171 27.92 252.736 28.848 253.142 29.936C253.547 31.024 253.75 32.2293 253.75 33.552ZM248.886 33.552C248.886 32.08 248.587 30.928 247.99 30.096C247.414 29.2427 246.582 28.816 245.494 28.816C244.406 28.816 243.563 29.2427 242.966 30.096C242.368 30.928 242.07 32.08 242.07 33.552C242.07 35.024 242.368 36.1973 242.966 37.072C243.563 37.9253 244.406 38.352 245.494 38.352C246.582 38.352 247.414 37.9253 247.99 37.072C248.587 36.1973 248.886 35.024 248.886 33.552ZM268.227 33.712C268.227 32.24 267.896 31.0667 267.235 30.192C266.574 29.296 265.592 28.848 264.291 28.848C263.864 28.848 263.47 28.8693 263.107 28.912C262.744 28.9333 262.446 28.9653 262.211 29.008V37.616C262.51 37.808 262.894 37.968 263.363 38.096C263.854 38.224 264.344 38.288 264.835 38.288C267.096 38.288 268.227 36.7627 268.227 33.712ZM273.091 33.584C273.091 34.8853 272.931 36.0693 272.611 37.136C272.291 38.2027 271.822 39.12 271.203 39.888C270.584 40.656 269.816 41.2533 268.899 41.68C267.982 42.1067 266.926 42.32 265.731 42.32C265.07 42.32 264.451 42.256 263.875 42.128C263.299 42 262.744 41.8187 262.211 41.584V47.92H257.443V25.744C257.87 25.616 258.36 25.4987 258.915 25.392C259.47 25.264 260.046 25.1573 260.643 25.072C261.262 24.9867 261.88 24.9227 262.499 24.88C263.139 24.816 263.747 24.784 264.323 24.784C265.71 24.784 266.947 24.9973 268.035 25.424C269.123 25.8293 270.04 26.416 270.787 27.184C271.534 27.9307 272.099 28.848 272.483 29.936C272.888 31.024 273.091 32.24 273.091 33.584Z" fill="#5B06AF"/>
</svg>
